<svg width="16" height="17" viewBox="0 0 16 17" fill="none" xmlns="http://www.w3.org/2000/svg"><g clip-path="url(#clip0_1022_155)"><path d="M14.1869 13.1777C13.955 13.7134 13.6805 14.2065 13.3625 14.6599C12.929 15.2779 12.5741 15.7057 12.3006 15.9433C11.8765 16.3332 11.4222 16.533 10.9357 16.5443C10.5865 16.5443 10.1653 16.4449 9.67504 16.2433C9.18315 16.0427 8.73112 15.9433 8.31779 15.9433C7.88431 15.9433 7.4194 16.0427 6.92212 16.2433C6.42409 16.4449 6.02288 16.55 5.71613 16.5604C5.24961 16.5803 4.78461 16.3749 4.32046 15.9433C4.02421 15.6849 3.65367 15.242 3.20977 14.6145C2.73351 13.9444 2.34195 13.1673 2.0352 12.2814C1.70668 11.3245 1.54199 10.3979 1.54199 9.50085C1.54199 8.47326 1.76403 7.58699 2.20878 6.84429C2.55832 6.24773 3.02332 5.77714 3.6053 5.43168C4.18729 5.08622 4.81613 4.91017 5.49333 4.89891C5.86387 4.89891 6.34979 5.01353 6.95364 5.23879C7.55579 5.46481 7.94242 5.57942 8.11194 5.57942C8.23867 5.57942 8.66818 5.4454 9.3963 5.17822C10.0849 4.93043 10.666 4.82783 11.1421 4.86825C12.4321 4.97236 13.4013 5.4809 14.0459 6.39708C12.8921 7.09615 12.3214 8.07527 12.3327 9.33134C12.3431 10.3097 12.6981 11.1239 13.3956 11.7703C13.7117 12.0703 14.0648 12.3022 14.4576 12.4669C14.3724 12.7139 14.2825 12.9506 14.1869 13.1777ZM11.2282 1.53515C11.2282 2.30199 10.948 3.01799 10.3896 3.68071C9.71574 4.46855 8.90063 4.9238 8.01672 4.85197C8.00546 4.75997 7.99893 4.66314 7.99893 4.5614C7.99893 3.82523 8.3194 3.03739 8.88852 2.39322C9.17265 2.06706 9.53401 1.79587 9.97223 1.57954C10.4095 1.36643 10.8231 1.24858 11.2121 1.22839C11.2235 1.33091 11.2282 1.43343 11.2282 1.53514V1.53515Z" fill="currentColor"></path></g><defs><clipPath id="clip0_1022_155"><rect width="16" height="16" fill="currentColor" transform="translate(0 0.89502)"></rect></clipPath></defs></svg>