<svg viewBox="0 0 240 60"><defs><pattern height="4" id="906mj1nva3" patternUnits="userSpaceOnUse" width="4" x="0" y="0"><g><rect fill="transparent" height="4" width="4"></rect><circle cx="1" cy="1" fill="#098551" fill-opacity="0.2" r="1"></circle></g></pattern></defs><g><path d="M2,31.56L2.492,35.37C2.983,39.18,3.967,46.801,4.95,50.999C5.933,55.198,6.917,55.975,7.9,51.297C8.883,46.62,9.867,36.489,10.85,33.928C11.833,31.368,12.817,36.379,13.8,36.695C14.783,37.012,15.767,32.633,16.75,32.156C17.733,31.679,18.717,35.103,19.7,35.221C20.683,35.34,21.667,32.152,22.65,33.015C23.633,33.877,24.617,38.789,25.6,38.374C26.583,37.958,27.567,32.214,28.55,31.427C29.533,30.64,30.517,34.809,31.5,35.092C32.483,35.376,33.467,31.774,34.45,32.343C35.433,32.913,36.417,37.655,37.4,36.951C38.383,36.246,39.367,30.096,40.35,29.29C41.333,28.483,42.317,33.019,43.3,36.055C44.283,39.09,45.267,40.624,46.25,39.536C47.233,38.447,48.217,34.736,49.2,35.653C50.183,36.569,51.167,42.112,52.15,42.829C53.133,43.547,54.117,39.439,55.1,38.685C56.083,37.931,57.067,40.53,58.05,39.984C59.033,39.437,60.017,35.744,61,37.515C61.983,39.286,62.967,46.521,63.95,45.961C64.933,45.4,65.917,37.043,66.9,32.549C67.883,28.055,68.867,27.425,69.85,30.424C70.833,33.422,71.817,40.048,72.8,44.877C73.783,49.707,74.767,52.739,75.75,49.347C76.733,45.955,77.717,36.14,78.7,33.074C79.683,30.007,80.667,33.69,81.65,34.692C82.633,35.693,83.617,34.014,84.6,34.558C85.583,35.103,86.567,37.872,87.55,37.609C88.533,37.346,89.517,34.05,90.5,33.928C91.483,33.807,92.467,36.86,93.45,41.401C94.433,45.942,95.417,51.971,96.4,49.092C97.383,46.214,98.367,34.427,99.35,30.653C100.333,26.879,101.317,31.116,102.3,31.86C103.283,32.605,104.267,29.855,105.25,29.794C106.233,29.733,107.217,32.361,108.2,31.879C109.183,31.396,110.167,27.803,111.15,27.307C112.133,26.811,113.117,29.413,114.1,27.003C115.083,24.593,116.067,17.172,117.05,17.703C118.033,18.234,119.017,26.717,120,30.037C120.983,33.357,121.967,31.514,122.95,33.01C123.933,34.505,124.917,39.339,125.9,38.871C126.883,38.404,127.867,32.636,128.85,30.921C129.833,29.206,130.817,31.545,131.8,30.32C132.783,29.094,133.767,24.305,134.75,18.991C135.733,13.677,136.717,7.839,137.7,9.49C138.683,11.142,139.667,20.285,140.65,23.064C141.633,25.844,142.617,22.261,143.6,18.779C144.583,15.296,145.567,11.913,146.55,13.51C147.533,15.108,148.517,21.685,149.5,23.761C150.483,25.837,151.467,23.411,152.45,26.684C153.433,29.957,154.417,38.928,155.4,38.546C156.383,38.164,157.367,28.427,158.35,28.078C159.333,27.729,160.317,36.768,161.3,43.041C162.283,49.315,163.267,52.822,164.25,46.184C165.233,39.545,166.217,22.759,167.2,19.406C168.183,16.053,169.167,26.133,170.15,29.268C171.133,32.403,172.117,28.592,173.1,29.542C174.083,30.492,175.067,36.204,176.05,39.232C177.033,42.26,178.017,42.606,179,37.643C179.983,32.679,180.967,22.406,181.95,20.901C182.933,19.396,183.917,26.659,184.9,27.656C185.883,28.654,186.867,23.385,187.85,23.892C188.833,24.399,189.817,30.681,190.8,30.643C191.783,30.606,192.767,24.25,193.75,23.737C194.733,23.224,195.717,28.554,196.7,29.336C197.683,30.118,198.667,26.351,199.65,25.853C200.633,25.356,201.617,28.127,202.6,28.909C203.583,29.69,204.567,28.482,205.55,31.064C206.533,33.646,207.517,40.017,208.5,39.418C209.483,38.819,210.467,31.248,211.45,24.189C212.433,17.13,213.417,10.583,214.4,10.781C215.383,10.979,216.367,17.922,217.35,21.215C218.333,24.508,219.317,24.152,220.3,26.299C221.283,28.447,222.267,33.099,223.25,33.088C224.233,33.077,225.217,28.402,226.2,28.39C227.183,28.378,228.167,33.029,229.15,35.521C230.133,38.013,231.117,38.347,232.1,36.741C233.083,35.135,234.067,31.589,234.558,29.816L235.05,28.044" fill="transparent" stroke="#098551" stroke-linecap="round" stroke-linejoin="round" stroke-width="2"></path><path d="M2,31.56L2.492,35.37C2.983,39.18,3.967,46.801,4.95,50.999C5.933,55.198,6.917,55.975,7.9,51.297C8.883,46.62,9.867,36.489,10.85,33.928C11.833,31.368,12.817,36.379,13.8,36.695C14.783,37.012,15.767,32.633,16.75,32.156C17.733,31.679,18.717,35.103,19.7,35.221C20.683,35.34,21.667,32.152,22.65,33.015C23.633,33.877,24.617,38.789,25.6,38.374C26.583,37.958,27.567,32.214,28.55,31.427C29.533,30.64,30.517,34.809,31.5,35.092C32.483,35.376,33.467,31.774,34.45,32.343C35.433,32.913,36.417,37.655,37.4,36.951C38.383,36.246,39.367,30.096,40.35,29.29C41.333,28.483,42.317,33.019,43.3,36.055C44.283,39.09,45.267,40.624,46.25,39.536C47.233,38.447,48.217,34.736,49.2,35.653C50.183,36.569,51.167,42.112,52.15,42.829C53.133,43.547,54.117,39.439,55.1,38.685C56.083,37.931,57.067,40.53,58.05,39.984C59.033,39.437,60.017,35.744,61,37.515C61.983,39.286,62.967,46.521,63.95,45.961C64.933,45.4,65.917,37.043,66.9,32.549C67.883,28.055,68.867,27.425,69.85,30.424C70.833,33.422,71.817,40.048,72.8,44.877C73.783,49.707,74.767,52.739,75.75,49.347C76.733,45.955,77.717,36.14,78.7,33.074C79.683,30.007,80.667,33.69,81.65,34.692C82.633,35.693,83.617,34.014,84.6,34.558C85.583,35.103,86.567,37.872,87.55,37.609C88.533,37.346,89.517,34.05,90.5,33.928C91.483,33.807,92.467,36.86,93.45,41.401C94.433,45.942,95.417,51.971,96.4,49.092C97.383,46.214,98.367,34.427,99.35,30.653C100.333,26.879,101.317,31.116,102.3,31.86C103.283,32.605,104.267,29.855,105.25,29.794C106.233,29.733,107.217,32.361,108.2,31.879C109.183,31.396,110.167,27.803,111.15,27.307C112.133,26.811,113.117,29.413,114.1,27.003C115.083,24.593,116.067,17.172,117.05,17.703C118.033,18.234,119.017,26.717,120,30.037C120.983,33.357,121.967,31.514,122.95,33.01C123.933,34.505,124.917,39.339,125.9,38.871C126.883,38.404,127.867,32.636,128.85,30.921C129.833,29.206,130.817,31.545,131.8,30.32C132.783,29.094,133.767,24.305,134.75,18.991C135.733,13.677,136.717,7.839,137.7,9.49C138.683,11.142,139.667,20.285,140.65,23.064C141.633,25.844,142.617,22.261,143.6,18.779C144.583,15.296,145.567,11.913,146.55,13.51C147.533,15.108,148.517,21.685,149.5,23.761C150.483,25.837,151.467,23.411,152.45,26.684C153.433,29.957,154.417,38.928,155.4,38.546C156.383,38.164,157.367,28.427,158.35,28.078C159.333,27.729,160.317,36.768,161.3,43.041C162.283,49.315,163.267,52.822,164.25,46.184C165.233,39.545,166.217,22.759,167.2,19.406C168.183,16.053,169.167,26.133,170.15,29.268C171.133,32.403,172.117,28.592,173.1,29.542C174.083,30.492,175.067,36.204,176.05,39.232C177.033,42.26,178.017,42.606,179,37.643C179.983,32.679,180.967,22.406,181.95,20.901C182.933,19.396,183.917,26.659,184.9,27.656C185.883,28.654,186.867,23.385,187.85,23.892C188.833,24.399,189.817,30.681,190.8,30.643C191.783,30.606,192.767,24.25,193.75,23.737C194.733,23.224,195.717,28.554,196.7,29.336C197.683,30.118,198.667,26.351,199.65,25.853C200.633,25.356,201.617,28.127,202.6,28.909C203.583,29.69,204.567,28.482,205.55,31.064C206.533,33.646,207.517,40.017,208.5,39.418C209.483,38.819,210.467,31.248,211.45,24.189C212.433,17.13,213.417,10.583,214.4,10.781C215.383,10.979,216.367,17.922,217.35,21.215C218.333,24.508,219.317,24.152,220.3,26.299C221.283,28.447,222.267,33.099,223.25,33.088C224.233,33.077,225.217,28.402,226.2,28.39C227.183,28.378,228.167,33.029,229.15,35.521C230.133,38.013,231.117,38.347,232.1,36.741C233.083,35.135,234.067,31.589,234.558,29.816L235.05,28.044L235.05,60L234.558,60C234.067,60,233.083,60,232.1,60C231.117,60,230.133,60,229.15,60C228.167,60,227.183,60,226.2,60C225.217,60,224.233,60,223.25,60C222.267,60,221.283,60,220.3,60C219.317,60,218.333,60,217.35,60C216.367,60,215.383,60,214.4,60C213.417,60,212.433,60,211.45,60C210.467,60,209.483,60,208.5,60C207.517,60,206.533,60,205.55,60C204.567,60,203.583,60,202.6,60C201.617,60,200.633,60,199.65,60C198.667,60,197.683,60,196.7,60C195.717,60,194.733,60,193.75,60C192.767,60,191.783,60,190.8,60C189.817,60,188.833,60,187.85,60C186.867,60,185.883,60,184.9,60C183.917,60,182.933,60,181.95,60C180.967,60,179.983,60,179,60C178.017,60,177.033,60,176.05,60C175.067,60,174.083,60,173.1,60C172.117,60,171.133,60,170.15,60C169.167,60,168.183,60,167.2,60C166.217,60,165.233,60,164.25,60C163.267,60,162.283,60,161.3,60C160.317,60,159.333,60,158.35,60C157.367,60,156.383,60,155.4,60C154.417,60,153.433,60,152.45,60C151.467,60,150.483,60,149.5,60C148.517,60,147.533,60,146.55,60C145.567,60,144.583,60,143.6,60C142.617,60,141.633,60,140.65,60C139.667,60,138.683,60,137.7,60C136.717,60,135.733,60,134.75,60C133.767,60,132.783,60,131.8,60C130.817,60,129.833,60,128.85,60C127.867,60,126.883,60,125.9,60C124.917,60,123.933,60,122.95,60C121.967,60,120.983,60,120,60C119.017,60,118.033,60,117.05,60C116.067,60,115.083,60,114.1,60C113.117,60,112.133,60,111.15,60C110.167,60,109.183,60,108.2,60C107.217,60,106.233,60,105.25,60C104.267,60,103.283,60,102.3,60C101.317,60,100.333,60,99.35,60C98.367,60,97.383,60,96.4,60C95.417,60,94.433,60,93.45,60C92.467,60,91.483,60,90.5,60C89.517,60,88.533,60,87.55,60C86.567,60,85.583,60,84.6,60C83.617,60,82.633,60,81.65,60C80.667,60,79.683,60,78.7,60C77.717,60,76.733,60,75.75,60C74.767,60,73.783,60,72.8,60C71.817,60,70.833,60,69.85,60C68.867,60,67.883,60,66.9,60C65.917,60,64.933,60,63.95,60C62.967,60,61.983,60,61,60C60.017,60,59.033,60,58.05,60C57.067,60,56.083,60,55.1,60C54.117,60,53.133,60,52.15,60C51.167,60,50.183,60,49.2,60C48.217,60,47.233,60,46.25,60C45.267,60,44.283,60,43.3,60C42.317,60,41.333,60,40.35,60C39.367,60,38.383,60,37.4,60C36.417,60,35.433,60,34.45,60C33.467,60,32.483,60,31.5,60C30.517,60,29.533,60,28.55,60C27.567,60,26.583,60,25.6,60C24.617,60,23.633,60,22.65,60C21.667,60,20.683,60,19.7,60C18.717,60,17.733,60,16.75,60C15.767,60,14.783,60,13.8,60C12.817,60,11.833,60,10.85,60C9.867,60,8.883,60,7.9,60C6.917,60,5.933,60,4.95,60C3.967,60,2.983,60,2.492,60L2,60Z" fill="url(#906mj1nva3)"></path></g></svg>