<svg viewBox="0 0 240 60"><defs><pattern height="4" id="8ftb4ihqsgl" patternUnits="userSpaceOnUse" width="4" x="0" y="0"><g><rect fill="transparent" height="4" width="4"></rect><circle cx="1" cy="1" fill="#CF202F" fill-opacity="0.2" r="1"></circle></g></pattern></defs><g><path d="M2,2L2.492,2.923C2.983,3.846,3.967,5.692,4.95,7.31C5.933,8.928,6.917,10.319,7.9,11.017C8.883,11.715,9.867,11.722,10.85,11.393C11.833,11.064,12.817,10.4,13.8,10.976C14.783,11.552,15.767,13.368,16.75,14.562C17.733,15.757,18.717,16.33,19.7,16.37C20.683,16.409,21.667,15.913,22.65,16.147C23.633,16.381,24.617,17.344,25.6,17.438C26.583,17.532,27.567,16.757,28.55,17.173C29.533,17.59,30.517,19.199,31.5,20.255C32.483,21.312,33.467,21.818,34.45,21.766C35.433,21.714,36.417,21.104,37.4,21.482C38.383,21.859,39.367,23.224,40.35,24.322C41.333,25.421,42.317,26.254,43.3,26.058C44.283,25.861,45.267,24.634,46.25,24.394C47.233,24.153,48.217,24.899,49.2,24.878C50.183,24.858,51.167,24.072,52.15,23.766C53.133,23.459,54.117,23.632,55.1,24.419C56.083,25.206,57.067,26.606,58.05,26.921C59.033,27.236,60.017,26.467,61,26.506C61.983,26.545,62.967,27.393,63.95,27.684C64.933,27.976,65.917,27.712,66.9,28.128C67.883,28.544,68.867,29.64,69.85,29.847C70.833,30.054,71.817,29.372,72.8,29.672C73.783,29.971,74.767,31.252,75.75,32.19C76.733,33.127,77.717,33.721,78.7,33.675C79.683,33.63,80.667,32.945,81.65,32.893C82.633,32.84,83.617,33.421,84.6,33.947C85.583,34.474,86.567,34.948,87.55,34.822C88.533,34.697,89.517,33.972,90.5,34.48C91.483,34.989,92.467,36.729,93.45,37.453C94.433,38.176,95.417,37.881,96.4,38.265C97.383,38.649,98.367,39.711,99.35,40.725C100.333,41.74,101.317,42.707,102.3,43.513C103.283,44.319,104.267,44.963,105.25,45.846C106.233,46.728,107.217,47.848,108.2,48.926C109.183,50.003,110.167,51.038,111.15,51.537C112.133,52.037,113.117,52.001,114.1,52.422C115.083,52.844,116.067,53.722,117.05,54.16C118.033,54.597,119.017,54.595,120,54.858C120.983,55.121,121.967,55.65,122.95,56.099C123.933,56.548,124.917,56.918,125.9,57.222C126.883,57.525,127.867,57.763,128.85,54.719C129.833,51.675,130.817,45.35,131.8,41.804C132.783,38.258,133.767,37.49,134.75,36.736C135.733,35.982,136.717,35.242,137.7,35.027C138.683,34.813,139.667,35.123,140.65,35.207C141.633,35.291,142.617,35.149,143.6,34.742C144.583,34.334,145.567,33.661,146.55,33.473C147.533,33.284,148.517,33.581,149.5,33.604C150.483,33.627,151.467,33.376,152.45,33.38C153.433,33.384,154.417,33.644,155.4,33.357C156.383,33.069,157.367,32.234,158.35,31.799C159.333,31.364,160.317,31.328,161.3,31.535C162.283,31.741,163.267,32.19,164.25,32.215C165.233,32.239,166.217,31.841,167.2,31.755C168.183,31.669,169.167,31.895,170.15,31.777C171.133,31.66,172.117,31.198,173.1,31.108C174.083,31.018,175.067,31.299,176.05,30.988C177.033,30.678,178.017,29.776,179,29.073C179.983,28.369,180.967,27.864,181.95,27.868C182.933,27.872,183.917,28.386,184.9,28.432C185.883,28.478,186.867,28.056,187.85,28.27C188.833,28.483,189.817,29.332,190.8,29.863C191.783,30.394,192.767,30.607,193.75,30.523C194.733,30.44,195.717,30.059,196.7,30.047C197.683,30.036,198.667,30.394,199.65,30.013C200.633,29.632,201.617,28.511,202.6,27.323C203.583,26.134,204.567,24.877,205.55,24.678C206.533,24.479,207.517,25.338,208.5,25.335C209.483,25.332,210.467,24.466,211.45,24.246C212.433,24.026,213.417,24.453,214.4,24.115C215.383,23.778,216.367,22.678,217.35,22.527C218.333,22.377,219.317,23.177,220.3,23.521C221.283,23.864,222.267,23.751,223.25,23.174C224.233,22.598,225.217,21.558,226.2,21.352C227.183,21.146,228.167,21.774,229.15,21.698C230.133,21.622,231.117,20.842,232.1,20.637C233.083,20.432,234.067,20.802,234.558,20.987L235.05,21.172" fill="transparent" stroke="#CF202F" stroke-linecap="round" stroke-linejoin="round" stroke-width="2"></path><path d="M2,2L2.492,2.923C2.983,3.846,3.967,5.692,4.95,7.31C5.933,8.928,6.917,10.319,7.9,11.017C8.883,11.715,9.867,11.722,10.85,11.393C11.833,11.064,12.817,10.4,13.8,10.976C14.783,11.552,15.767,13.368,16.75,14.562C17.733,15.757,18.717,16.33,19.7,16.37C20.683,16.409,21.667,15.913,22.65,16.147C23.633,16.381,24.617,17.344,25.6,17.438C26.583,17.532,27.567,16.757,28.55,17.173C29.533,17.59,30.517,19.199,31.5,20.255C32.483,21.312,33.467,21.818,34.45,21.766C35.433,21.714,36.417,21.104,37.4,21.482C38.383,21.859,39.367,23.224,40.35,24.322C41.333,25.421,42.317,26.254,43.3,26.058C44.283,25.861,45.267,24.634,46.25,24.394C47.233,24.153,48.217,24.899,49.2,24.878C50.183,24.858,51.167,24.072,52.15,23.766C53.133,23.459,54.117,23.632,55.1,24.419C56.083,25.206,57.067,26.606,58.05,26.921C59.033,27.236,60.017,26.467,61,26.506C61.983,26.545,62.967,27.393,63.95,27.684C64.933,27.976,65.917,27.712,66.9,28.128C67.883,28.544,68.867,29.64,69.85,29.847C70.833,30.054,71.817,29.372,72.8,29.672C73.783,29.971,74.767,31.252,75.75,32.19C76.733,33.127,77.717,33.721,78.7,33.675C79.683,33.63,80.667,32.945,81.65,32.893C82.633,32.84,83.617,33.421,84.6,33.947C85.583,34.474,86.567,34.948,87.55,34.822C88.533,34.697,89.517,33.972,90.5,34.48C91.483,34.989,92.467,36.729,93.45,37.453C94.433,38.176,95.417,37.881,96.4,38.265C97.383,38.649,98.367,39.711,99.35,40.725C100.333,41.74,101.317,42.707,102.3,43.513C103.283,44.319,104.267,44.963,105.25,45.846C106.233,46.728,107.217,47.848,108.2,48.926C109.183,50.003,110.167,51.038,111.15,51.537C112.133,52.037,113.117,52.001,114.1,52.422C115.083,52.844,116.067,53.722,117.05,54.16C118.033,54.597,119.017,54.595,120,54.858C120.983,55.121,121.967,55.65,122.95,56.099C123.933,56.548,124.917,56.918,125.9,57.222C126.883,57.525,127.867,57.763,128.85,54.719C129.833,51.675,130.817,45.35,131.8,41.804C132.783,38.258,133.767,37.49,134.75,36.736C135.733,35.982,136.717,35.242,137.7,35.027C138.683,34.813,139.667,35.123,140.65,35.207C141.633,35.291,142.617,35.149,143.6,34.742C144.583,34.334,145.567,33.661,146.55,33.473C147.533,33.284,148.517,33.581,149.5,33.604C150.483,33.627,151.467,33.376,152.45,33.38C153.433,33.384,154.417,33.644,155.4,33.357C156.383,33.069,157.367,32.234,158.35,31.799C159.333,31.364,160.317,31.328,161.3,31.535C162.283,31.741,163.267,32.19,164.25,32.215C165.233,32.239,166.217,31.841,167.2,31.755C168.183,31.669,169.167,31.895,170.15,31.777C171.133,31.66,172.117,31.198,173.1,31.108C174.083,31.018,175.067,31.299,176.05,30.988C177.033,30.678,178.017,29.776,179,29.073C179.983,28.369,180.967,27.864,181.95,27.868C182.933,27.872,183.917,28.386,184.9,28.432C185.883,28.478,186.867,28.056,187.85,28.27C188.833,28.483,189.817,29.332,190.8,29.863C191.783,30.394,192.767,30.607,193.75,30.523C194.733,30.44,195.717,30.059,196.7,30.047C197.683,30.036,198.667,30.394,199.65,30.013C200.633,29.632,201.617,28.511,202.6,27.323C203.583,26.134,204.567,24.877,205.55,24.678C206.533,24.479,207.517,25.338,208.5,25.335C209.483,25.332,210.467,24.466,211.45,24.246C212.433,24.026,213.417,24.453,214.4,24.115C215.383,23.778,216.367,22.678,217.35,22.527C218.333,22.377,219.317,23.177,220.3,23.521C221.283,23.864,222.267,23.751,223.25,23.174C224.233,22.598,225.217,21.558,226.2,21.352C227.183,21.146,228.167,21.774,229.15,21.698C230.133,21.622,231.117,20.842,232.1,20.637C233.083,20.432,234.067,20.802,234.558,20.987L235.05,21.172L235.05,60L234.558,60C234.067,60,233.083,60,232.1,60C231.117,60,230.133,60,229.15,60C228.167,60,227.183,60,226.2,60C225.217,60,224.233,60,223.25,60C222.267,60,221.283,60,220.3,60C219.317,60,218.333,60,217.35,60C216.367,60,215.383,60,214.4,60C213.417,60,212.433,60,211.45,60C210.467,60,209.483,60,208.5,60C207.517,60,206.533,60,205.55,60C204.567,60,203.583,60,202.6,60C201.617,60,200.633,60,199.65,60C198.667,60,197.683,60,196.7,60C195.717,60,194.733,60,193.75,60C192.767,60,191.783,60,190.8,60C189.817,60,188.833,60,187.85,60C186.867,60,185.883,60,184.9,60C183.917,60,182.933,60,181.95,60C180.967,60,179.983,60,179,60C178.017,60,177.033,60,176.05,60C175.067,60,174.083,60,173.1,60C172.117,60,171.133,60,170.15,60C169.167,60,168.183,60,167.2,60C166.217,60,165.233,60,164.25,60C163.267,60,162.283,60,161.3,60C160.317,60,159.333,60,158.35,60C157.367,60,156.383,60,155.4,60C154.417,60,153.433,60,152.45,60C151.467,60,150.483,60,149.5,60C148.517,60,147.533,60,146.55,60C145.567,60,144.583,60,143.6,60C142.617,60,141.633,60,140.65,60C139.667,60,138.683,60,137.7,60C136.717,60,135.733,60,134.75,60C133.767,60,132.783,60,131.8,60C130.817,60,129.833,60,128.85,60C127.867,60,126.883,60,125.9,60C124.917,60,123.933,60,122.95,60C121.967,60,120.983,60,120,60C119.017,60,118.033,60,117.05,60C116.067,60,115.083,60,114.1,60C113.117,60,112.133,60,111.15,60C110.167,60,109.183,60,108.2,60C107.217,60,106.233,60,105.25,60C104.267,60,103.283,60,102.3,60C101.317,60,100.333,60,99.35,60C98.367,60,97.383,60,96.4,60C95.417,60,94.433,60,93.45,60C92.467,60,91.483,60,90.5,60C89.517,60,88.533,60,87.55,60C86.567,60,85.583,60,84.6,60C83.617,60,82.633,60,81.65,60C80.667,60,79.683,60,78.7,60C77.717,60,76.733,60,75.75,60C74.767,60,73.783,60,72.8,60C71.817,60,70.833,60,69.85,60C68.867,60,67.883,60,66.9,60C65.917,60,64.933,60,63.95,60C62.967,60,61.983,60,61,60C60.017,60,59.033,60,58.05,60C57.067,60,56.083,60,55.1,60C54.117,60,53.133,60,52.15,60C51.167,60,50.183,60,49.2,60C48.217,60,47.233,60,46.25,60C45.267,60,44.283,60,43.3,60C42.317,60,41.333,60,40.35,60C39.367,60,38.383,60,37.4,60C36.417,60,35.433,60,34.45,60C33.467,60,32.483,60,31.5,60C30.517,60,29.533,60,28.55,60C27.567,60,26.583,60,25.6,60C24.617,60,23.633,60,22.65,60C21.667,60,20.683,60,19.7,60C18.717,60,17.733,60,16.75,60C15.767,60,14.783,60,13.8,60C12.817,60,11.833,60,10.85,60C9.867,60,8.883,60,7.9,60C6.917,60,5.933,60,4.95,60C3.967,60,2.983,60,2.492,60L2,60Z" fill="url(#8ftb4ihqsgl)"></path></g></svg>