<svg width="17" height="17" viewBox="0 0 17 17" fill="none" xmlns="http://www.w3.org/2000/svg"><path fill-rule="evenodd" clip-rule="evenodd" d="M16.18 8.57691C16.18 8.00964 16.1291 7.46419 16.0345 6.94055H8.5V10.0351H12.8055C12.62 11.0351 12.0564 11.8824 11.2091 12.4496V14.4569H13.7945C15.3073 13.0642 16.18 11.0133 16.18 8.57691Z" fill="currentColor"></path><path fill-rule="evenodd" clip-rule="evenodd" d="M8.50017 16.3949C10.6602 16.3949 12.4711 15.6786 13.7947 14.4567L11.2093 12.4495C10.4929 12.9295 9.57653 13.2131 8.50017 13.2131C6.41653 13.2131 4.65289 11.8058 4.0238 9.91492H1.35107V11.9876C2.66744 14.6022 5.37289 16.3949 8.50017 16.3949Z" fill="currentColor"></path><path fill-rule="evenodd" clip-rule="evenodd" d="M4.02364 9.91497C3.86364 9.43497 3.77273 8.92225 3.77273 8.39497C3.77273 7.8677 3.86364 7.35497 4.02364 6.87497V4.80225H1.35091C0.809091 5.88225 0.5 7.10406 0.5 8.39497C0.5 9.68588 0.809091 10.9077 1.35091 11.9877L4.02364 9.91497Z" fill="currentColor"></path><path fill-rule="evenodd" clip-rule="evenodd" d="M8.50017 3.57684C9.67471 3.57684 10.7293 3.98047 11.5583 4.7732L13.8529 2.47866C12.4674 1.18775 10.6565 0.39502 8.50017 0.39502C5.37289 0.39502 2.66744 2.18775 1.35107 4.80229L4.0238 6.87502C4.65289 4.98411 6.41653 3.57684 8.50017 3.57684Z" fill="currentColor"></path></svg>