<svg width="16" height="17" viewBox="0 0 16 17" fill="none" xmlns="http://www.w3.org/2000/svg"><path d="M5.37256 0.93801C4.02536 1.22585 2.8994 2.35696 2.55569 3.75968C2.43717 4.24618 2.43717 5.05701 2.55569 5.5435C2.90335 6.9665 4.02141 8.07328 5.40417 8.36518C5.62936 8.41383 5.8506 8.42599 6.30098 8.41383C6.80668 8.39356 6.941 8.37734 7.22941 8.28004C8.02746 8.01652 8.62007 7.59489 9.08625 6.95434C9.38256 6.55298 9.56429 6.18405 9.70652 5.71783C9.80529 5.38944 9.81319 5.30836 9.81319 4.65159C9.81319 3.99482 9.80529 3.91374 9.70652 3.58536C9.3312 2.33668 8.45809 1.43261 7.22941 1.02315C6.92915 0.921793 6.82643 0.909631 6.26148 0.897468C5.83875 0.88936 5.54639 0.901522 5.37256 0.93801Z" fill="currentColor"></path><path d="M12.5633 5.55967C11.9983 5.68129 11.5045 5.96508 11.0817 6.41509C10.2995 7.23808 10.0625 8.4908 10.4891 9.56515C10.7064 10.1165 11.1963 10.6922 11.6862 10.976L11.9272 11.1179L11.9312 13.3882V15.6585L12.5356 16.2747L13.1401 16.895L14.1633 15.8409L15.1905 14.7869L14.5781 14.1585L13.9658 13.5301L14.5702 12.9098C14.8982 12.5693 15.1708 12.2733 15.1708 12.253C15.1708 12.2328 14.9535 11.9895 14.6888 11.7179C14.4241 11.4463 14.2147 11.2152 14.2226 11.2071C14.2344 11.199 14.3846 11.1138 14.5584 11.0125C15.2142 10.6395 15.7397 9.94218 15.9214 9.20839C16.0162 8.8273 16.0281 8.11782 15.9411 7.75295C15.7081 6.73131 14.9021 5.884 13.8986 5.60021C13.5944 5.51507 12.8754 5.4948 12.5633 5.55967ZM13.6023 6.90564C13.7959 7.04348 13.9855 7.38808 13.9855 7.607C13.9855 7.81377 13.8196 8.15026 13.6576 8.27594C13.4759 8.41783 13.148 8.48675 12.9386 8.42999C12.5988 8.33269 12.3302 7.97593 12.3262 7.61917C12.3223 6.94618 13.069 6.52861 13.6023 6.90564Z" fill="currentColor"></path><path d="M4.16802 9.78411C2.34279 10.0719 0.809901 11.4098 0.233093 13.218C0.0355566 13.8423 0 14.1585 0 15.3585V16.4491H5.33349H10.667V14.1382V11.8274L10.3509 11.5193C9.99536 11.1706 9.71486 10.7976 9.51337 10.4084L9.37904 10.1449L8.94446 9.99492C8.23728 9.75167 7.90147 9.71924 6.09993 9.72329C4.97397 9.72735 4.42087 9.74356 4.16802 9.78411Z" fill="currentColor"></path></svg>