<svg viewBox="0 0 240 60"><defs><pattern height="4" id="d145a9uu66n" patternUnits="userSpaceOnUse" width="4" x="0" y="0"><g><rect fill="transparent" height="4" width="4"></rect><circle cx="1" cy="1" fill="#CF202F" fill-opacity="0.2" r="1"></circle></g></pattern></defs><g><path d="M2,23.508L2.492,25.287C2.983,27.067,3.967,30.627,4.95,33.471C5.933,36.316,6.917,38.446,7.9,38.052C8.883,37.658,9.867,34.741,10.85,33.629C11.833,32.517,12.817,33.211,13.8,32.603C14.783,31.994,15.767,30.082,16.75,29.325C17.733,28.567,18.717,28.963,19.7,28.468C20.683,27.972,21.667,26.586,22.65,26.891C23.633,27.196,24.617,29.192,25.6,29.385C26.583,29.579,27.567,27.968,28.55,27.971C29.533,27.973,30.517,29.589,31.5,31.008C32.483,32.427,33.467,33.651,34.45,34.21C35.433,34.768,36.417,34.662,37.4,33.835C38.383,33.009,39.367,31.464,40.35,30.41C41.333,29.357,42.317,28.796,43.3,29.094C44.283,29.392,45.267,30.55,46.25,30.099C47.233,29.649,48.217,27.591,49.2,26.351C50.183,25.111,51.167,24.69,52.15,25.766C53.133,26.842,54.117,29.415,55.1,31.137C56.083,32.858,57.067,33.728,58.05,33.606C59.033,33.484,60.017,32.369,61,32.863C61.983,33.356,62.967,35.458,63.95,35.18C64.933,34.901,65.917,32.243,66.9,31.029C67.883,29.815,68.867,30.045,69.85,31.371C70.833,32.697,71.817,35.12,72.8,35.934C73.783,36.747,74.767,35.952,75.75,37.779C76.733,39.607,77.717,44.057,78.7,45.476C79.683,46.895,80.667,45.283,81.65,44.679C82.633,44.075,83.617,44.478,84.6,44.865C85.583,45.251,86.567,45.621,87.55,45.288C88.533,44.955,89.517,43.919,90.5,44.138C91.483,44.356,92.467,45.829,93.45,48.348C94.433,50.867,95.417,54.434,96.4,54.806C97.383,55.179,98.367,52.358,99.35,49.226C100.333,46.095,101.317,42.652,102.3,40.773C103.283,38.894,104.267,38.579,105.25,38.53C106.233,38.481,107.217,38.699,108.2,39.623C109.183,40.546,110.167,42.175,111.15,42.438C112.133,42.701,113.117,41.598,114.1,39.54C115.083,37.482,116.067,34.47,117.05,33.345C118.033,32.22,119.017,32.983,120,33.348C120.983,33.712,121.967,33.679,122.95,34.206C123.933,34.733,124.917,35.82,125.9,35.965C126.883,36.109,127.867,35.311,128.85,33.405C129.833,31.499,130.817,28.486,131.8,27.185C132.783,25.884,133.767,26.295,134.75,24.736C135.733,23.177,136.717,19.647,137.7,17.787C138.683,15.928,139.667,15.739,140.65,16.144C141.633,16.548,142.617,17.546,143.6,17.451C144.583,17.357,145.567,16.169,146.55,13.412C147.533,10.655,148.517,6.327,149.5,5.871C150.483,5.414,151.467,8.828,152.45,12.585C153.433,16.343,154.417,20.443,155.4,21.388C156.383,22.334,157.367,20.126,158.35,20.746C159.333,21.366,160.317,24.815,161.3,26.198C162.283,27.581,163.267,26.898,164.25,29.571C165.233,32.244,166.217,38.274,167.2,39.004C168.183,39.735,169.167,35.167,170.15,33.234C171.133,31.301,172.117,32.004,173.1,34.074C174.083,36.143,175.067,39.58,176.05,42.519C177.033,45.458,178.017,47.899,179,46.779C179.983,45.659,180.967,40.978,181.95,39.027C182.933,37.076,183.917,37.854,184.9,37.59C185.883,37.327,186.867,36.021,187.85,36.96C188.833,37.9,189.817,41.084,190.8,41.57C191.783,42.057,192.767,39.845,193.75,38.485C194.733,37.125,195.717,36.618,196.7,37.25C197.683,37.881,198.667,39.652,199.65,40.221C200.633,40.79,201.617,40.157,202.6,40.378C203.583,40.599,204.567,41.675,205.55,43.559C206.533,45.442,207.517,48.134,208.5,49.79C209.483,51.446,210.467,52.066,211.45,50.834C212.433,49.603,213.417,46.519,214.4,45.449C215.383,44.379,216.367,45.324,217.35,45.506C218.333,45.689,219.317,45.109,220.3,45.341C221.283,45.573,222.267,46.616,223.25,48.165C224.233,49.715,225.217,51.771,226.2,52.077C227.183,52.383,228.167,50.939,229.15,50.81C230.133,50.681,231.117,51.867,232.1,51.332C233.083,50.797,234.067,48.542,234.558,47.415L235.05,46.287" fill="transparent" stroke="#CF202F" stroke-linecap="round" stroke-linejoin="round" stroke-width="2"></path><path d="M2,23.508L2.492,25.287C2.983,27.067,3.967,30.627,4.95,33.471C5.933,36.316,6.917,38.446,7.9,38.052C8.883,37.658,9.867,34.741,10.85,33.629C11.833,32.517,12.817,33.211,13.8,32.603C14.783,31.994,15.767,30.082,16.75,29.325C17.733,28.567,18.717,28.963,19.7,28.468C20.683,27.972,21.667,26.586,22.65,26.891C23.633,27.196,24.617,29.192,25.6,29.385C26.583,29.579,27.567,27.968,28.55,27.971C29.533,27.973,30.517,29.589,31.5,31.008C32.483,32.427,33.467,33.651,34.45,34.21C35.433,34.768,36.417,34.662,37.4,33.835C38.383,33.009,39.367,31.464,40.35,30.41C41.333,29.357,42.317,28.796,43.3,29.094C44.283,29.392,45.267,30.55,46.25,30.099C47.233,29.649,48.217,27.591,49.2,26.351C50.183,25.111,51.167,24.69,52.15,25.766C53.133,26.842,54.117,29.415,55.1,31.137C56.083,32.858,57.067,33.728,58.05,33.606C59.033,33.484,60.017,32.369,61,32.863C61.983,33.356,62.967,35.458,63.95,35.18C64.933,34.901,65.917,32.243,66.9,31.029C67.883,29.815,68.867,30.045,69.85,31.371C70.833,32.697,71.817,35.12,72.8,35.934C73.783,36.747,74.767,35.952,75.75,37.779C76.733,39.607,77.717,44.057,78.7,45.476C79.683,46.895,80.667,45.283,81.65,44.679C82.633,44.075,83.617,44.478,84.6,44.865C85.583,45.251,86.567,45.621,87.55,45.288C88.533,44.955,89.517,43.919,90.5,44.138C91.483,44.356,92.467,45.829,93.45,48.348C94.433,50.867,95.417,54.434,96.4,54.806C97.383,55.179,98.367,52.358,99.35,49.226C100.333,46.095,101.317,42.652,102.3,40.773C103.283,38.894,104.267,38.579,105.25,38.53C106.233,38.481,107.217,38.699,108.2,39.623C109.183,40.546,110.167,42.175,111.15,42.438C112.133,42.701,113.117,41.598,114.1,39.54C115.083,37.482,116.067,34.47,117.05,33.345C118.033,32.22,119.017,32.983,120,33.348C120.983,33.712,121.967,33.679,122.95,34.206C123.933,34.733,124.917,35.82,125.9,35.965C126.883,36.109,127.867,35.311,128.85,33.405C129.833,31.499,130.817,28.486,131.8,27.185C132.783,25.884,133.767,26.295,134.75,24.736C135.733,23.177,136.717,19.647,137.7,17.787C138.683,15.928,139.667,15.739,140.65,16.144C141.633,16.548,142.617,17.546,143.6,17.451C144.583,17.357,145.567,16.169,146.55,13.412C147.533,10.655,148.517,6.327,149.5,5.871C150.483,5.414,151.467,8.828,152.45,12.585C153.433,16.343,154.417,20.443,155.4,21.388C156.383,22.334,157.367,20.126,158.35,20.746C159.333,21.366,160.317,24.815,161.3,26.198C162.283,27.581,163.267,26.898,164.25,29.571C165.233,32.244,166.217,38.274,167.2,39.004C168.183,39.735,169.167,35.167,170.15,33.234C171.133,31.301,172.117,32.004,173.1,34.074C174.083,36.143,175.067,39.58,176.05,42.519C177.033,45.458,178.017,47.899,179,46.779C179.983,45.659,180.967,40.978,181.95,39.027C182.933,37.076,183.917,37.854,184.9,37.59C185.883,37.327,186.867,36.021,187.85,36.96C188.833,37.9,189.817,41.084,190.8,41.57C191.783,42.057,192.767,39.845,193.75,38.485C194.733,37.125,195.717,36.618,196.7,37.25C197.683,37.881,198.667,39.652,199.65,40.221C200.633,40.79,201.617,40.157,202.6,40.378C203.583,40.599,204.567,41.675,205.55,43.559C206.533,45.442,207.517,48.134,208.5,49.79C209.483,51.446,210.467,52.066,211.45,50.834C212.433,49.603,213.417,46.519,214.4,45.449C215.383,44.379,216.367,45.324,217.35,45.506C218.333,45.689,219.317,45.109,220.3,45.341C221.283,45.573,222.267,46.616,223.25,48.165C224.233,49.715,225.217,51.771,226.2,52.077C227.183,52.383,228.167,50.939,229.15,50.81C230.133,50.681,231.117,51.867,232.1,51.332C233.083,50.797,234.067,48.542,234.558,47.415L235.05,46.287L235.05,60L234.558,60C234.067,60,233.083,60,232.1,60C231.117,60,230.133,60,229.15,60C228.167,60,227.183,60,226.2,60C225.217,60,224.233,60,223.25,60C222.267,60,221.283,60,220.3,60C219.317,60,218.333,60,217.35,60C216.367,60,215.383,60,214.4,60C213.417,60,212.433,60,211.45,60C210.467,60,209.483,60,208.5,60C207.517,60,206.533,60,205.55,60C204.567,60,203.583,60,202.6,60C201.617,60,200.633,60,199.65,60C198.667,60,197.683,60,196.7,60C195.717,60,194.733,60,193.75,60C192.767,60,191.783,60,190.8,60C189.817,60,188.833,60,187.85,60C186.867,60,185.883,60,184.9,60C183.917,60,182.933,60,181.95,60C180.967,60,179.983,60,179,60C178.017,60,177.033,60,176.05,60C175.067,60,174.083,60,173.1,60C172.117,60,171.133,60,170.15,60C169.167,60,168.183,60,167.2,60C166.217,60,165.233,60,164.25,60C163.267,60,162.283,60,161.3,60C160.317,60,159.333,60,158.35,60C157.367,60,156.383,60,155.4,60C154.417,60,153.433,60,152.45,60C151.467,60,150.483,60,149.5,60C148.517,60,147.533,60,146.55,60C145.567,60,144.583,60,143.6,60C142.617,60,141.633,60,140.65,60C139.667,60,138.683,60,137.7,60C136.717,60,135.733,60,134.75,60C133.767,60,132.783,60,131.8,60C130.817,60,129.833,60,128.85,60C127.867,60,126.883,60,125.9,60C124.917,60,123.933,60,122.95,60C121.967,60,120.983,60,120,60C119.017,60,118.033,60,117.05,60C116.067,60,115.083,60,114.1,60C113.117,60,112.133,60,111.15,60C110.167,60,109.183,60,108.2,60C107.217,60,106.233,60,105.25,60C104.267,60,103.283,60,102.3,60C101.317,60,100.333,60,99.35,60C98.367,60,97.383,60,96.4,60C95.417,60,94.433,60,93.45,60C92.467,60,91.483,60,90.5,60C89.517,60,88.533,60,87.55,60C86.567,60,85.583,60,84.6,60C83.617,60,82.633,60,81.65,60C80.667,60,79.683,60,78.7,60C77.717,60,76.733,60,75.75,60C74.767,60,73.783,60,72.8,60C71.817,60,70.833,60,69.85,60C68.867,60,67.883,60,66.9,60C65.917,60,64.933,60,63.95,60C62.967,60,61.983,60,61,60C60.017,60,59.033,60,58.05,60C57.067,60,56.083,60,55.1,60C54.117,60,53.133,60,52.15,60C51.167,60,50.183,60,49.2,60C48.217,60,47.233,60,46.25,60C45.267,60,44.283,60,43.3,60C42.317,60,41.333,60,40.35,60C39.367,60,38.383,60,37.4,60C36.417,60,35.433,60,34.45,60C33.467,60,32.483,60,31.5,60C30.517,60,29.533,60,28.55,60C27.567,60,26.583,60,25.6,60C24.617,60,23.633,60,22.65,60C21.667,60,20.683,60,19.7,60C18.717,60,17.733,60,16.75,60C15.767,60,14.783,60,13.8,60C12.817,60,11.833,60,10.85,60C9.867,60,8.883,60,7.9,60C6.917,60,5.933,60,4.95,60C3.967,60,2.983,60,2.492,60L2,60Z" fill="url(#d145a9uu66n)"></path></g></svg>