<svg viewBox="0 0 240 60"><defs><pattern height="4" id="6mm8gp431nu" patternUnits="userSpaceOnUse" width="4" x="0" y="0"><g><rect fill="transparent" height="4" width="4"></rect><circle cx="1" cy="1" fill="#098551" fill-opacity="0.2" r="1"></circle></g></pattern></defs><g><path d="M2,58L2.492,57.901C2.983,57.803,3.967,57.605,4.95,56.019C5.933,54.432,6.917,51.456,7.9,49.953C8.883,48.45,9.867,48.42,10.85,47.989C11.833,47.559,12.817,46.728,13.8,46.79C14.783,46.852,15.767,47.807,16.75,48.748C17.733,49.689,18.717,50.616,19.7,51.336C20.683,52.056,21.667,52.569,22.65,53.091C23.633,53.613,24.617,54.145,25.6,54.346C26.583,54.548,27.567,54.42,28.55,54.562C29.533,54.703,30.517,55.115,31.5,55.255C32.483,55.395,33.467,55.263,34.45,55.007C35.433,54.751,36.417,54.369,37.4,54.24C38.383,54.111,39.367,54.235,40.35,54.159C41.333,54.084,42.317,53.808,43.3,53.791C44.283,53.774,45.267,54.015,46.25,54.506C47.233,54.996,48.217,55.734,49.2,55.965C50.183,56.196,51.167,55.919,52.15,55.868C53.133,55.817,54.117,55.992,55.1,55.894C56.083,55.795,57.067,55.423,58.05,55.276C59.033,55.13,60.017,55.211,61,55.166C61.983,55.12,62.967,54.95,63.95,55.142C64.933,55.335,65.917,55.89,66.9,55.877C67.883,55.863,68.867,55.281,69.85,54.871C70.833,54.461,71.817,54.224,72.8,53.968C73.783,53.711,74.767,53.435,75.75,52.398C76.733,51.36,77.717,49.561,78.7,48.481C79.683,47.401,80.667,47.041,81.65,46.736C82.633,46.431,83.617,46.182,84.6,46.023C85.583,45.865,86.567,45.797,87.55,46.077C88.533,46.356,89.517,46.984,90.5,47.305C91.483,47.626,92.467,47.64,93.45,46.92C94.433,46.2,95.417,44.746,96.4,44.187C97.383,43.628,98.367,43.964,99.35,43.712C100.333,43.46,101.317,42.62,102.3,41.978C103.283,41.336,104.267,40.892,105.25,40.794C106.233,40.696,107.217,40.944,108.2,41.065C109.183,41.186,110.167,41.18,111.15,41.337C112.133,41.494,113.117,41.813,114.1,42.51C115.083,43.206,116.067,44.28,117.05,44.887C118.033,45.493,119.017,45.632,120,45.499C120.983,45.367,121.967,44.963,122.95,44.923C123.933,44.884,124.917,45.209,125.9,45.276C126.883,45.344,127.867,45.153,128.85,45.11C129.833,45.068,130.817,45.172,131.8,45.074C132.783,44.976,133.767,44.675,134.75,44.272C135.733,43.869,136.717,43.364,137.7,42.804C138.683,42.243,139.667,41.627,140.65,41.2C141.633,40.774,142.617,40.537,143.6,40.138C144.583,39.739,145.567,39.178,146.55,38.388C147.533,37.598,148.517,36.579,149.5,35.408C150.483,34.237,151.467,32.915,152.45,31.913C153.433,30.91,154.417,30.227,155.4,30.197C156.383,30.168,157.367,30.791,158.35,30.651C159.333,30.51,160.317,29.605,161.3,29.591C162.283,29.578,163.267,30.456,164.25,29.116C165.233,27.776,166.217,24.218,167.2,22.444C168.183,20.67,169.167,20.68,170.15,20.422C171.133,20.163,172.117,19.635,173.1,19.348C174.083,19.062,175.067,19.016,176.05,18.686C177.033,18.355,178.017,17.74,179,16.288C179.983,14.836,180.967,12.547,181.95,11.068C182.933,9.589,183.917,8.921,184.9,8.928C185.883,8.935,186.867,9.618,187.85,9.735C188.833,9.852,189.817,9.403,190.8,9.284C191.783,9.166,192.767,9.378,193.75,9.537C194.733,9.695,195.717,9.8,196.7,9.732C197.683,9.663,198.667,9.422,199.65,9.127C200.633,8.832,201.617,8.482,202.6,8.231C203.583,7.979,204.567,7.826,205.55,7.764C206.533,7.702,207.517,7.731,208.5,7.536C209.483,7.341,210.467,6.922,211.45,6.451C212.433,5.98,213.417,5.458,214.4,4.931C215.383,4.404,216.367,3.871,217.35,3.382C218.333,2.893,219.317,2.446,220.3,2.577C221.283,2.707,222.267,3.414,223.25,4.349C224.233,5.284,225.217,6.447,226.2,6.684C227.183,6.922,228.167,6.233,229.15,5.847C230.133,5.461,231.117,5.378,232.1,5.501C233.083,5.624,234.067,5.954,234.558,6.118L235.05,6.283" fill="transparent" stroke="#098551" stroke-linecap="round" stroke-linejoin="round" stroke-width="2"></path><path d="M2,58L2.492,57.901C2.983,57.803,3.967,57.605,4.95,56.019C5.933,54.432,6.917,51.456,7.9,49.953C8.883,48.45,9.867,48.42,10.85,47.989C11.833,47.559,12.817,46.728,13.8,46.79C14.783,46.852,15.767,47.807,16.75,48.748C17.733,49.689,18.717,50.616,19.7,51.336C20.683,52.056,21.667,52.569,22.65,53.091C23.633,53.613,24.617,54.145,25.6,54.346C26.583,54.548,27.567,54.42,28.55,54.562C29.533,54.703,30.517,55.115,31.5,55.255C32.483,55.395,33.467,55.263,34.45,55.007C35.433,54.751,36.417,54.369,37.4,54.24C38.383,54.111,39.367,54.235,40.35,54.159C41.333,54.084,42.317,53.808,43.3,53.791C44.283,53.774,45.267,54.015,46.25,54.506C47.233,54.996,48.217,55.734,49.2,55.965C50.183,56.196,51.167,55.919,52.15,55.868C53.133,55.817,54.117,55.992,55.1,55.894C56.083,55.795,57.067,55.423,58.05,55.276C59.033,55.13,60.017,55.211,61,55.166C61.983,55.12,62.967,54.95,63.95,55.142C64.933,55.335,65.917,55.89,66.9,55.877C67.883,55.863,68.867,55.281,69.85,54.871C70.833,54.461,71.817,54.224,72.8,53.968C73.783,53.711,74.767,53.435,75.75,52.398C76.733,51.36,77.717,49.561,78.7,48.481C79.683,47.401,80.667,47.041,81.65,46.736C82.633,46.431,83.617,46.182,84.6,46.023C85.583,45.865,86.567,45.797,87.55,46.077C88.533,46.356,89.517,46.984,90.5,47.305C91.483,47.626,92.467,47.64,93.45,46.92C94.433,46.2,95.417,44.746,96.4,44.187C97.383,43.628,98.367,43.964,99.35,43.712C100.333,43.46,101.317,42.62,102.3,41.978C103.283,41.336,104.267,40.892,105.25,40.794C106.233,40.696,107.217,40.944,108.2,41.065C109.183,41.186,110.167,41.18,111.15,41.337C112.133,41.494,113.117,41.813,114.1,42.51C115.083,43.206,116.067,44.28,117.05,44.887C118.033,45.493,119.017,45.632,120,45.499C120.983,45.367,121.967,44.963,122.95,44.923C123.933,44.884,124.917,45.209,125.9,45.276C126.883,45.344,127.867,45.153,128.85,45.11C129.833,45.068,130.817,45.172,131.8,45.074C132.783,44.976,133.767,44.675,134.75,44.272C135.733,43.869,136.717,43.364,137.7,42.804C138.683,42.243,139.667,41.627,140.65,41.2C141.633,40.774,142.617,40.537,143.6,40.138C144.583,39.739,145.567,39.178,146.55,38.388C147.533,37.598,148.517,36.579,149.5,35.408C150.483,34.237,151.467,32.915,152.45,31.913C153.433,30.91,154.417,30.227,155.4,30.197C156.383,30.168,157.367,30.791,158.35,30.651C159.333,30.51,160.317,29.605,161.3,29.591C162.283,29.578,163.267,30.456,164.25,29.116C165.233,27.776,166.217,24.218,167.2,22.444C168.183,20.67,169.167,20.68,170.15,20.422C171.133,20.163,172.117,19.635,173.1,19.348C174.083,19.062,175.067,19.016,176.05,18.686C177.033,18.355,178.017,17.74,179,16.288C179.983,14.836,180.967,12.547,181.95,11.068C182.933,9.589,183.917,8.921,184.9,8.928C185.883,8.935,186.867,9.618,187.85,9.735C188.833,9.852,189.817,9.403,190.8,9.284C191.783,9.166,192.767,9.378,193.75,9.537C194.733,9.695,195.717,9.8,196.7,9.732C197.683,9.663,198.667,9.422,199.65,9.127C200.633,8.832,201.617,8.482,202.6,8.231C203.583,7.979,204.567,7.826,205.55,7.764C206.533,7.702,207.517,7.731,208.5,7.536C209.483,7.341,210.467,6.922,211.45,6.451C212.433,5.98,213.417,5.458,214.4,4.931C215.383,4.404,216.367,3.871,217.35,3.382C218.333,2.893,219.317,2.446,220.3,2.577C221.283,2.707,222.267,3.414,223.25,4.349C224.233,5.284,225.217,6.447,226.2,6.684C227.183,6.922,228.167,6.233,229.15,5.847C230.133,5.461,231.117,5.378,232.1,5.501C233.083,5.624,234.067,5.954,234.558,6.118L235.05,6.283L235.05,60L234.558,60C234.067,60,233.083,60,232.1,60C231.117,60,230.133,60,229.15,60C228.167,60,227.183,60,226.2,60C225.217,60,224.233,60,223.25,60C222.267,60,221.283,60,220.3,60C219.317,60,218.333,60,217.35,60C216.367,60,215.383,60,214.4,60C213.417,60,212.433,60,211.45,60C210.467,60,209.483,60,208.5,60C207.517,60,206.533,60,205.55,60C204.567,60,203.583,60,202.6,60C201.617,60,200.633,60,199.65,60C198.667,60,197.683,60,196.7,60C195.717,60,194.733,60,193.75,60C192.767,60,191.783,60,190.8,60C189.817,60,188.833,60,187.85,60C186.867,60,185.883,60,184.9,60C183.917,60,182.933,60,181.95,60C180.967,60,179.983,60,179,60C178.017,60,177.033,60,176.05,60C175.067,60,174.083,60,173.1,60C172.117,60,171.133,60,170.15,60C169.167,60,168.183,60,167.2,60C166.217,60,165.233,60,164.25,60C163.267,60,162.283,60,161.3,60C160.317,60,159.333,60,158.35,60C157.367,60,156.383,60,155.4,60C154.417,60,153.433,60,152.45,60C151.467,60,150.483,60,149.5,60C148.517,60,147.533,60,146.55,60C145.567,60,144.583,60,143.6,60C142.617,60,141.633,60,140.65,60C139.667,60,138.683,60,137.7,60C136.717,60,135.733,60,134.75,60C133.767,60,132.783,60,131.8,60C130.817,60,129.833,60,128.85,60C127.867,60,126.883,60,125.9,60C124.917,60,123.933,60,122.95,60C121.967,60,120.983,60,120,60C119.017,60,118.033,60,117.05,60C116.067,60,115.083,60,114.1,60C113.117,60,112.133,60,111.15,60C110.167,60,109.183,60,108.2,60C107.217,60,106.233,60,105.25,60C104.267,60,103.283,60,102.3,60C101.317,60,100.333,60,99.35,60C98.367,60,97.383,60,96.4,60C95.417,60,94.433,60,93.45,60C92.467,60,91.483,60,90.5,60C89.517,60,88.533,60,87.55,60C86.567,60,85.583,60,84.6,60C83.617,60,82.633,60,81.65,60C80.667,60,79.683,60,78.7,60C77.717,60,76.733,60,75.75,60C74.767,60,73.783,60,72.8,60C71.817,60,70.833,60,69.85,60C68.867,60,67.883,60,66.9,60C65.917,60,64.933,60,63.95,60C62.967,60,61.983,60,61,60C60.017,60,59.033,60,58.05,60C57.067,60,56.083,60,55.1,60C54.117,60,53.133,60,52.15,60C51.167,60,50.183,60,49.2,60C48.217,60,47.233,60,46.25,60C45.267,60,44.283,60,43.3,60C42.317,60,41.333,60,40.35,60C39.367,60,38.383,60,37.4,60C36.417,60,35.433,60,34.45,60C33.467,60,32.483,60,31.5,60C30.517,60,29.533,60,28.55,60C27.567,60,26.583,60,25.6,60C24.617,60,23.633,60,22.65,60C21.667,60,20.683,60,19.7,60C18.717,60,17.733,60,16.75,60C15.767,60,14.783,60,13.8,60C12.817,60,11.833,60,10.85,60C9.867,60,8.883,60,7.9,60C6.917,60,5.933,60,4.95,60C3.967,60,2.983,60,2.492,60L2,60Z" fill="url(#6mm8gp431nu)"></path></g></svg>